<?xml version="1.0" encoding="utf-8"?>
<!-- Generator: Adobe Illustrator 22.0.0, SVG Export Plug-In . SVG Version: 6.00 Build 0)  -->
<svg version="1.1" id="Layer_1" xmlns="http://www.w3.org/2000/svg" xmlns:xlink="http://www.w3.org/1999/xlink" x="0px" y="0px"
	 viewBox="0 0 25.5 29.7" style="enable-background:new 0 0 25.5 29.7;" xml:space="preserve">
<style type="text/css">
	.st0{fill:none;stroke:#000000;stroke-width:2;stroke-miterlimit:10;}
</style>
<title>china</title>
<g id="Layer_2_1_">
	<g id="Layer_1-2">
		<path class="st0" d="M17.5,29.4H7.9c-5.5-4-8.3-9.1-7.5-12.3c0.4-1.3,0.9-2.6,1.7-3.8c0.8-1.1,1.7-2.1,2.7-2.9
			c0.9-0.9,1.9-1.7,2.9-2.5c1.7-1.2,2.4-1.3,2.9-2.3C10.9,4.9,11,4,10.7,3.2c-0.4-0.7-1.1-0.8-1.4-1.6c-0.1-0.4-0.1-0.9,0-1.3h6.8
			c0.3,0.8,0.1,1.1,0,1.3s-0.5,0.3-0.8,0.7C15.2,2.5,15,2.7,15,2.9c-0.3,0.9-0.3,1.8,0,2.7c0.3,0.6,0.8,1,1.3,1.4
			c0.4,0.4,0.8,0.7,1.2,1c1.6,1.1,3.2,2.3,4.6,3.7c1.3,1.2,2.2,2.7,2.8,4.3c1.2,3.9-0.9,7.5-1.5,8.5C21.6,27.1,17.5,29.4,17.5,29.4z
			"/>
	</g>
</g>
</svg>
