<svg xmlns="http://www.w3.org/2000/svg" viewBox="0 0 395.28 49.32"><title>Asset 2</title><g id="Layer_2" data-name="Layer 2"><g id="Layer_1-2" data-name="Layer 1"><path d="M200.71,2a93.21,93.21,0,0,1,13.4-1c9,0,15.5,2.05,19.77,5.92s6.88,9.38,6.88,17.06-2.46,14.09-7,18.46-12.1,6.83-21.58,6.83a105.38,105.38,0,0,1-11.45-.56Z"/><path d="M6.26,0V20.31H29.74V0h6.33V48.53H29.74V25.78H6.26V48.53H0V0Z"/><path d="M78.27,30.82c0,12.89-8.93,18.5-17.36,18.5-9.43,0-16.7-6.91-16.7-17.93,0-11.66,7.63-18.5,17.28-18.5C71.5,12.89,78.27,20.16,78.27,30.82Zm-27.65.36c0,7.63,4.39,13.39,10.58,13.39S71.79,38.88,71.79,31c0-5.9-3-13.39-10.45-13.39S50.62,24.55,50.62,31.18Z"/><path d="M86.25,23.11c0-3.6-.07-6.55-.28-9.43h5.54l.29,5.62H92A12,12,0,0,1,103,12.89a10.32,10.32,0,0,1,9.87,7H113a14.38,14.38,0,0,1,3.89-4.53,11.86,11.86,0,0,1,7.7-2.45c4.61,0,11.45,3,11.45,15.12V48.53h-6.19V28.8c0-6.69-2.45-10.73-7.56-10.73a8.21,8.21,0,0,0-7.49,5.76,10.43,10.43,0,0,0-.5,3.17V48.53h-6.2V27.65c0-5.54-2.45-9.58-7.27-9.58-4,0-6.84,3.17-7.85,6.34a8.77,8.77,0,0,0-.5,3.1v21h-6.2Z"/><path d="M149.83,32.26c.15,8.57,5.62,12.1,11.95,12.1a23,23,0,0,0,9.65-1.8l1.08,4.53a28.19,28.19,0,0,1-11.59,2.16c-10.73,0-17.14-7-17.14-17.57s6.2-18.79,16.35-18.79c11.37,0,14.4,10,14.4,16.42a22.34,22.34,0,0,1-.22,2.95Zm18.58-4.54c.07-4-1.66-10.29-8.79-10.29-6.4,0-9.21,5.9-9.72,10.29Z"/><path d="M249.4,32.26c.15,8.57,5.62,12.1,12,12.1a23,23,0,0,0,9.65-1.8l1.08,4.53a28.24,28.24,0,0,1-11.6,2.16c-10.72,0-17.13-7-17.13-17.57s6.19-18.79,16.34-18.79c11.38,0,14.4,10,14.4,16.42a24.66,24.66,0,0,1-.21,2.95ZM268,27.72c.08-4-1.65-10.29-8.78-10.29-6.41,0-9.22,5.9-9.72,10.29Z"/><path d="M306.79,47.24a23.44,23.44,0,0,1-10,2c-10.51,0-17.35-7.13-17.35-17.78S286.77,13,298.15,13a21.21,21.21,0,0,1,8.78,1.8l-1.44,4.9A14.59,14.59,0,0,0,298.15,18c-8,0-12.31,5.91-12.31,13.18,0,8.06,5.18,13,12.09,13a17.9,17.9,0,0,0,7.78-1.73Z"/><path d="M322.77,3.67v10h9.07v4.83h-9.07V37.3c0,4.32,1.23,6.77,4.75,6.77a14.48,14.48,0,0,0,3.68-.43l.28,4.75a15.55,15.55,0,0,1-5.61.86A8.77,8.77,0,0,1,319,46.59c-1.8-1.87-2.45-5-2.45-9.07v-19h-5.4V13.68h5.4V5.33Z"/><path d="M370.08,30.82c0,12.89-8.93,18.5-17.36,18.5-9.43,0-16.7-6.91-16.7-17.93,0-11.66,7.63-18.5,17.28-18.5C363.31,12.89,370.08,20.16,370.08,30.82Zm-27.65.36c0,7.63,4.39,13.39,10.58,13.39S363.6,38.88,363.6,31c0-5.9-3-13.39-10.44-13.39S342.43,24.55,342.43,31.18Z"/><path d="M378.07,24.55c0-4.1-.08-7.63-.29-10.87h5.54l.22,6.84h.29c1.58-4.68,5.4-7.63,9.65-7.63a7.06,7.06,0,0,1,1.8.21v6a9.82,9.82,0,0,0-2.16-.21c-4.47,0-7.64,3.38-8.5,8.13a18.31,18.31,0,0,0-.29,2.95V48.53h-6.26Z"/></g></g></svg>